<mxfile host="app.diagrams.net" agent="Mozilla/5.0 (Windows NT 10.0; Win64; x64) AppleWebKit/537.36 (KHTML, like Gecko) Chrome/140.0.0.0 Safari/537.36" version="26.0.16">
  <diagram name="Page-1" id="dbqcunaT0eiVZBuxsVKp">
    <mxGraphModel dx="1552" dy="772" grid="1" gridSize="10" guides="1" tooltips="1" connect="1" arrows="1" fold="1" page="1" pageScale="1" pageWidth="827" pageHeight="1169" math="0" shadow="0">
      <root>
        <mxCell id="0" />
        <mxCell id="1" parent="0" />
        <mxCell id="gO1K1MzVKFmecInwmLxQ-4" value="«interface»&lt;br&gt;&lt;b&gt;AlertService&lt;/b&gt;" style="html=1;whiteSpace=wrap;" vertex="1" parent="1">
          <mxGeometry x="1210" y="190" width="130" height="50" as="geometry" />
        </mxCell>
        <mxCell id="gO1K1MzVKFmecInwmLxQ-5" value="SystemOutAlertServiceImpl" style="swimlane;fontStyle=0;childLayout=stackLayout;horizontal=1;startSize=26;fillColor=none;horizontalStack=0;resizeParent=1;resizeParentMax=0;resizeLast=0;collapsible=1;marginBottom=0;whiteSpace=wrap;html=1;" vertex="1" parent="1">
          <mxGeometry x="1390" y="188" width="190" height="52" as="geometry" />
        </mxCell>
        <mxCell id="gO1K1MzVKFmecInwmLxQ-9" value="Launcher" style="swimlane;fontStyle=0;childLayout=stackLayout;horizontal=1;startSize=26;fillColor=none;horizontalStack=0;resizeParent=1;resizeParentMax=0;resizeLast=0;collapsible=1;marginBottom=0;whiteSpace=wrap;html=1;" vertex="1" parent="1">
          <mxGeometry x="120" y="360" width="140" height="52" as="geometry" />
        </mxCell>
        <mxCell id="gO1K1MzVKFmecInwmLxQ-13" value="LoadBalancer" style="swimlane;fontStyle=0;childLayout=stackLayout;horizontal=1;startSize=26;fillColor=none;horizontalStack=0;resizeParent=1;resizeParentMax=0;resizeLast=0;collapsible=1;marginBottom=0;whiteSpace=wrap;html=1;" vertex="1" parent="1">
          <mxGeometry x="320" y="360" width="140" height="52" as="geometry" />
        </mxCell>
        <mxCell id="gO1K1MzVKFmecInwmLxQ-15" value="" style="endArrow=block;dashed=1;endFill=0;endSize=12;html=1;rounded=0;exitX=0;exitY=0.5;exitDx=0;exitDy=0;entryX=1;entryY=0.5;entryDx=0;entryDy=0;" edge="1" parent="1" source="gO1K1MzVKFmecInwmLxQ-5" target="gO1K1MzVKFmecInwmLxQ-4">
          <mxGeometry width="160" relative="1" as="geometry">
            <mxPoint x="1235" y="-74" as="sourcePoint" />
            <mxPoint x="1395" y="-74" as="targetPoint" />
          </mxGeometry>
        </mxCell>
        <mxCell id="gO1K1MzVKFmecInwmLxQ-17" value="«interface»&lt;br&gt;&lt;b&gt;Algorithm&lt;/b&gt;" style="html=1;whiteSpace=wrap;" vertex="1" parent="1">
          <mxGeometry x="780" y="533" width="110" height="50" as="geometry" />
        </mxCell>
        <mxCell id="gO1K1MzVKFmecInwmLxQ-18" value="IPHashAlgorithm" style="swimlane;fontStyle=0;childLayout=stackLayout;horizontal=1;startSize=26;fillColor=none;horizontalStack=0;resizeParent=1;resizeParentMax=0;resizeLast=0;collapsible=1;marginBottom=0;whiteSpace=wrap;html=1;" vertex="1" parent="1">
          <mxGeometry x="950" y="460" width="140" height="52" as="geometry" />
        </mxCell>
        <mxCell id="gO1K1MzVKFmecInwmLxQ-22" value="LeastUsedAlgorithm" style="swimlane;fontStyle=0;childLayout=stackLayout;horizontal=1;startSize=26;fillColor=none;horizontalStack=0;resizeParent=1;resizeParentMax=0;resizeLast=0;collapsible=1;marginBottom=0;whiteSpace=wrap;html=1;" vertex="1" parent="1">
          <mxGeometry x="950" y="533" width="140" height="52" as="geometry" />
        </mxCell>
        <mxCell id="gO1K1MzVKFmecInwmLxQ-23" value="RoundRobinAlgorithm" style="swimlane;fontStyle=0;childLayout=stackLayout;horizontal=1;startSize=26;fillColor=none;horizontalStack=0;resizeParent=1;resizeParentMax=0;resizeLast=0;collapsible=1;marginBottom=0;whiteSpace=wrap;html=1;" vertex="1" parent="1">
          <mxGeometry x="950" y="608" width="140" height="52" as="geometry" />
        </mxCell>
        <mxCell id="gO1K1MzVKFmecInwmLxQ-24" value="" style="endArrow=block;dashed=1;endFill=0;endSize=12;html=1;rounded=0;exitX=0;exitY=0.5;exitDx=0;exitDy=0;entryX=1;entryY=0.5;entryDx=0;entryDy=0;" edge="1" parent="1" source="gO1K1MzVKFmecInwmLxQ-22" target="gO1K1MzVKFmecInwmLxQ-17">
          <mxGeometry width="160" relative="1" as="geometry">
            <mxPoint x="733" y="720" as="sourcePoint" />
            <mxPoint x="733" y="670" as="targetPoint" />
          </mxGeometry>
        </mxCell>
        <mxCell id="gO1K1MzVKFmecInwmLxQ-25" value="" style="endArrow=block;dashed=1;endFill=0;endSize=12;html=1;rounded=0;exitX=0;exitY=0.5;exitDx=0;exitDy=0;entryX=1;entryY=0.5;entryDx=0;entryDy=0;" edge="1" parent="1" source="gO1K1MzVKFmecInwmLxQ-18" target="gO1K1MzVKFmecInwmLxQ-17">
          <mxGeometry width="160" relative="1" as="geometry">
            <mxPoint x="1080" y="820" as="sourcePoint" />
            <mxPoint x="1080" y="680" as="targetPoint" />
            <Array as="points">
              <mxPoint x="920" y="486" />
              <mxPoint x="920" y="560" />
            </Array>
          </mxGeometry>
        </mxCell>
        <mxCell id="gO1K1MzVKFmecInwmLxQ-26" value="" style="endArrow=block;dashed=1;endFill=0;endSize=12;html=1;rounded=0;exitX=0;exitY=0.5;exitDx=0;exitDy=0;entryX=1;entryY=0.5;entryDx=0;entryDy=0;" edge="1" parent="1" source="gO1K1MzVKFmecInwmLxQ-23" target="gO1K1MzVKFmecInwmLxQ-17">
          <mxGeometry width="160" relative="1" as="geometry">
            <mxPoint x="1090" y="830" as="sourcePoint" />
            <mxPoint x="1090" y="690" as="targetPoint" />
            <Array as="points">
              <mxPoint x="920" y="634" />
              <mxPoint x="920" y="558" />
            </Array>
          </mxGeometry>
        </mxCell>
        <mxCell id="gO1K1MzVKFmecInwmLxQ-31" value="EndPoint" style="swimlane;fontStyle=0;childLayout=stackLayout;horizontal=1;startSize=26;fillColor=none;horizontalStack=0;resizeParent=1;resizeParentMax=0;resizeLast=0;collapsible=1;marginBottom=0;whiteSpace=wrap;html=1;" vertex="1" parent="1">
          <mxGeometry x="540.5" y="260" width="132.5" height="52" as="geometry" />
        </mxCell>
        <mxCell id="gO1K1MzVKFmecInwmLxQ-35" value="InMemoryEndPointRegistryImpl" style="swimlane;fontStyle=0;childLayout=stackLayout;horizontal=1;startSize=26;fillColor=none;horizontalStack=0;resizeParent=1;resizeParentMax=0;resizeLast=0;collapsible=1;marginBottom=0;whiteSpace=wrap;html=1;" vertex="1" parent="1">
          <mxGeometry x="950" y="220" width="190" height="52" as="geometry" />
        </mxCell>
        <mxCell id="gO1K1MzVKFmecInwmLxQ-36" value="«interface»&lt;br&gt;&lt;b&gt;EndPointRegistry&lt;/b&gt;" style="html=1;whiteSpace=wrap;" vertex="1" parent="1">
          <mxGeometry x="780" y="220" width="110" height="50" as="geometry" />
        </mxCell>
        <mxCell id="gO1K1MzVKFmecInwmLxQ-37" value="" style="endArrow=block;dashed=1;endFill=0;endSize=12;html=1;rounded=0;entryX=1;entryY=0.5;entryDx=0;entryDy=0;exitX=0;exitY=0.5;exitDx=0;exitDy=0;" edge="1" parent="1" source="gO1K1MzVKFmecInwmLxQ-35" target="gO1K1MzVKFmecInwmLxQ-36">
          <mxGeometry width="160" relative="1" as="geometry">
            <mxPoint x="930" y="310" as="sourcePoint" />
            <mxPoint x="890" y="244.5" as="targetPoint" />
          </mxGeometry>
        </mxCell>
        <mxCell id="gO1K1MzVKFmecInwmLxQ-38" value="«interface»&lt;br&gt;&lt;b&gt;HealthCheckService&lt;/b&gt;" style="html=1;whiteSpace=wrap;" vertex="1" parent="1">
          <mxGeometry x="1210" y="254" width="130" height="50" as="geometry" />
        </mxCell>
        <mxCell id="gO1K1MzVKFmecInwmLxQ-39" value="ConnectHealthCheckServiceImpl" style="swimlane;fontStyle=0;childLayout=stackLayout;horizontal=1;startSize=26;fillColor=none;horizontalStack=0;resizeParent=1;resizeParentMax=0;resizeLast=0;collapsible=1;marginBottom=0;whiteSpace=wrap;html=1;" vertex="1" parent="1">
          <mxGeometry x="1390" y="254" width="190" height="52" as="geometry" />
        </mxCell>
        <mxCell id="gO1K1MzVKFmecInwmLxQ-40" value="" style="endArrow=block;dashed=1;endFill=0;endSize=12;html=1;rounded=0;exitX=0;exitY=0.5;exitDx=0;exitDy=0;entryX=1;entryY=0.5;entryDx=0;entryDy=0;" edge="1" parent="1" source="gO1K1MzVKFmecInwmLxQ-39" target="gO1K1MzVKFmecInwmLxQ-38">
          <mxGeometry width="160" relative="1" as="geometry">
            <mxPoint x="1445" y="-74" as="sourcePoint" />
            <mxPoint x="1605" y="-74" as="targetPoint" />
          </mxGeometry>
        </mxCell>
        <mxCell id="gO1K1MzVKFmecInwmLxQ-41" value="Pipe" style="swimlane;fontStyle=0;childLayout=stackLayout;horizontal=1;startSize=26;fillColor=none;horizontalStack=0;resizeParent=1;resizeParentMax=0;resizeLast=0;collapsible=1;marginBottom=0;whiteSpace=wrap;html=1;" vertex="1" parent="1">
          <mxGeometry x="520" y="460" width="175" height="52" as="geometry" />
        </mxCell>
        <mxCell id="gO1K1MzVKFmecInwmLxQ-42" value="«interface»&lt;br&gt;&lt;b&gt;MetricsService&lt;/b&gt;" style="html=1;whiteSpace=wrap;" vertex="1" parent="1">
          <mxGeometry x="780" y="361" width="110" height="50" as="geometry" />
        </mxCell>
        <mxCell id="gO1K1MzVKFmecInwmLxQ-43" value="SystemOutMetricsServiceImpl" style="swimlane;fontStyle=0;childLayout=stackLayout;horizontal=1;startSize=26;fillColor=none;horizontalStack=0;resizeParent=1;resizeParentMax=0;resizeLast=0;collapsible=1;marginBottom=0;whiteSpace=wrap;html=1;" vertex="1" parent="1">
          <mxGeometry x="950" y="360" width="190" height="52" as="geometry" />
        </mxCell>
        <mxCell id="gO1K1MzVKFmecInwmLxQ-44" value="" style="endArrow=block;dashed=1;endFill=0;endSize=12;html=1;rounded=0;exitX=0;exitY=0.5;exitDx=0;exitDy=0;entryX=1;entryY=0.5;entryDx=0;entryDy=0;" edge="1" parent="1" source="gO1K1MzVKFmecInwmLxQ-43" target="gO1K1MzVKFmecInwmLxQ-42">
          <mxGeometry width="160" relative="1" as="geometry">
            <mxPoint x="725" y="390" as="sourcePoint" />
            <mxPoint x="885" y="390" as="targetPoint" />
          </mxGeometry>
        </mxCell>
        <mxCell id="gO1K1MzVKFmecInwmLxQ-45" value="Proxy" style="swimlane;fontStyle=0;childLayout=stackLayout;horizontal=1;startSize=26;fillColor=none;horizontalStack=0;resizeParent=1;resizeParentMax=0;resizeLast=0;collapsible=1;marginBottom=0;whiteSpace=wrap;html=1;" vertex="1" parent="1">
          <mxGeometry x="520" y="360" width="175" height="52" as="geometry" />
        </mxCell>
        <mxCell id="gO1K1MzVKFmecInwmLxQ-47" value="" style="endArrow=block;endFill=1;html=1;edgeStyle=orthogonalEdgeStyle;align=left;verticalAlign=top;rounded=0;exitX=1;exitY=0.5;exitDx=0;exitDy=0;" edge="1" parent="1" source="gO1K1MzVKFmecInwmLxQ-9" target="gO1K1MzVKFmecInwmLxQ-13">
          <mxGeometry x="-1" relative="1" as="geometry">
            <mxPoint x="720" y="388" as="sourcePoint" />
            <mxPoint x="880" y="388" as="targetPoint" />
          </mxGeometry>
        </mxCell>
        <mxCell id="gO1K1MzVKFmecInwmLxQ-49" value="" style="endArrow=block;endFill=1;html=1;edgeStyle=orthogonalEdgeStyle;align=left;verticalAlign=top;rounded=0;exitX=0.5;exitY=1;exitDx=0;exitDy=0;entryX=0.5;entryY=0;entryDx=0;entryDy=0;" edge="1" parent="1" source="gO1K1MzVKFmecInwmLxQ-45" target="gO1K1MzVKFmecInwmLxQ-41">
          <mxGeometry x="-1" relative="1" as="geometry">
            <mxPoint x="617" y="481" as="sourcePoint" />
            <mxPoint x="617" y="691" as="targetPoint" />
          </mxGeometry>
        </mxCell>
        <mxCell id="gO1K1MzVKFmecInwmLxQ-56" value="" style="endArrow=block;endFill=1;html=1;edgeStyle=orthogonalEdgeStyle;align=left;verticalAlign=top;rounded=0;exitX=1;exitY=0.5;exitDx=0;exitDy=0;entryX=0;entryY=0.5;entryDx=0;entryDy=0;" edge="1" parent="1" source="gO1K1MzVKFmecInwmLxQ-35" target="gO1K1MzVKFmecInwmLxQ-4">
          <mxGeometry x="-1" relative="1" as="geometry">
            <mxPoint x="638" y="522" as="sourcePoint" />
            <mxPoint x="638" y="670" as="targetPoint" />
          </mxGeometry>
        </mxCell>
        <mxCell id="gO1K1MzVKFmecInwmLxQ-58" value="" style="endArrow=block;endFill=1;html=1;edgeStyle=orthogonalEdgeStyle;align=left;verticalAlign=top;rounded=0;exitX=1;exitY=0.5;exitDx=0;exitDy=0;entryX=0;entryY=0.5;entryDx=0;entryDy=0;" edge="1" parent="1" source="gO1K1MzVKFmecInwmLxQ-35" target="gO1K1MzVKFmecInwmLxQ-38">
          <mxGeometry x="-1" relative="1" as="geometry">
            <mxPoint x="1150" y="256" as="sourcePoint" />
            <mxPoint x="1220" y="225" as="targetPoint" />
          </mxGeometry>
        </mxCell>
        <mxCell id="gO1K1MzVKFmecInwmLxQ-60" value="" style="endArrow=block;endFill=1;html=1;edgeStyle=orthogonalEdgeStyle;align=left;verticalAlign=top;rounded=0;exitX=1;exitY=0.5;exitDx=0;exitDy=0;entryX=0;entryY=0.5;entryDx=0;entryDy=0;" edge="1" parent="1" source="gO1K1MzVKFmecInwmLxQ-13" target="gO1K1MzVKFmecInwmLxQ-45">
          <mxGeometry x="-1" relative="1" as="geometry">
            <mxPoint x="370" y="160" as="sourcePoint" />
            <mxPoint x="370" y="370" as="targetPoint" />
          </mxGeometry>
        </mxCell>
        <mxCell id="gO1K1MzVKFmecInwmLxQ-61" value="" style="endArrow=block;endFill=1;html=1;edgeStyle=orthogonalEdgeStyle;align=left;verticalAlign=top;rounded=0;exitX=1;exitY=0.5;exitDx=0;exitDy=0;entryX=0;entryY=0.5;entryDx=0;entryDy=0;" edge="1" parent="1" source="gO1K1MzVKFmecInwmLxQ-45" target="gO1K1MzVKFmecInwmLxQ-36">
          <mxGeometry x="-1" relative="1" as="geometry">
            <mxPoint x="440" y="396" as="sourcePoint" />
            <mxPoint x="530" y="396" as="targetPoint" />
            <Array as="points">
              <mxPoint x="720" y="386" />
              <mxPoint x="720" y="245" />
            </Array>
          </mxGeometry>
        </mxCell>
        <mxCell id="gO1K1MzVKFmecInwmLxQ-63" value="" style="endArrow=block;endFill=1;html=1;edgeStyle=orthogonalEdgeStyle;align=left;verticalAlign=top;rounded=0;exitX=1;exitY=0.5;exitDx=0;exitDy=0;entryX=0;entryY=0.5;entryDx=0;entryDy=0;" edge="1" parent="1" source="gO1K1MzVKFmecInwmLxQ-45" target="gO1K1MzVKFmecInwmLxQ-42">
          <mxGeometry x="-1" relative="1" as="geometry">
            <mxPoint x="590" y="220" as="sourcePoint" />
            <mxPoint x="675" y="79" as="targetPoint" />
            <Array as="points">
              <mxPoint x="720" y="386" />
              <mxPoint x="720" y="385" />
            </Array>
          </mxGeometry>
        </mxCell>
        <mxCell id="gO1K1MzVKFmecInwmLxQ-64" value="" style="endArrow=block;endFill=1;html=1;edgeStyle=orthogonalEdgeStyle;align=left;verticalAlign=top;rounded=0;exitX=1;exitY=0.5;exitDx=0;exitDy=0;entryX=0;entryY=0.5;entryDx=0;entryDy=0;" edge="1" parent="1" source="gO1K1MzVKFmecInwmLxQ-45" target="gO1K1MzVKFmecInwmLxQ-17">
          <mxGeometry x="-1" relative="1" as="geometry">
            <mxPoint x="705" y="396" as="sourcePoint" />
            <mxPoint x="790" y="396" as="targetPoint" />
            <Array as="points">
              <mxPoint x="720" y="386" />
              <mxPoint x="720" y="558" />
            </Array>
          </mxGeometry>
        </mxCell>
        <mxCell id="gO1K1MzVKFmecInwmLxQ-65" value="" style="endArrow=block;endFill=1;html=1;edgeStyle=orthogonalEdgeStyle;align=left;verticalAlign=top;rounded=0;exitX=0.5;exitY=0;exitDx=0;exitDy=0;entryX=0.5;entryY=1;entryDx=0;entryDy=0;" edge="1" parent="1" source="gO1K1MzVKFmecInwmLxQ-45" target="gO1K1MzVKFmecInwmLxQ-31">
          <mxGeometry x="-1" relative="1" as="geometry">
            <mxPoint x="618" y="422" as="sourcePoint" />
            <mxPoint x="618" y="570" as="targetPoint" />
          </mxGeometry>
        </mxCell>
        <mxCell id="gO1K1MzVKFmecInwmLxQ-66" value="" style="endArrow=block;endFill=1;html=1;edgeStyle=orthogonalEdgeStyle;align=left;verticalAlign=top;rounded=0;exitX=0;exitY=0.25;exitDx=0;exitDy=0;entryX=0.5;entryY=0;entryDx=0;entryDy=0;" edge="1" parent="1" source="gO1K1MzVKFmecInwmLxQ-36" target="gO1K1MzVKFmecInwmLxQ-31">
          <mxGeometry x="-1" relative="1" as="geometry">
            <mxPoint x="618" y="370" as="sourcePoint" />
            <mxPoint x="618" y="280" as="targetPoint" />
          </mxGeometry>
        </mxCell>
      </root>
    </mxGraphModel>
  </diagram>
</mxfile>
